<mxfile host="app.diagrams.net" modified="2024-03-28T13:08:54.124Z" agent="Mozilla/5.0 (Windows NT 10.0; Win64; x64) AppleWebKit/537.36 (KHTML, like Gecko) Chrome/123.0.0.0 Safari/537.36" etag="wKH9xVVz3XClhp1pdzv4" version="24.2.0" type="device">
  <diagram id="R2lEEEUBdFMjLlhIrx00" name="Page-1">
    <mxGraphModel dx="1050" dy="569" grid="1" gridSize="10" guides="1" tooltips="1" connect="1" arrows="1" fold="1" page="1" pageScale="1" pageWidth="850" pageHeight="1100" math="0" shadow="0" extFonts="Permanent Marker^https://fonts.googleapis.com/css?family=Permanent+Marker">
      <root>
        <mxCell id="0" />
        <mxCell id="1" parent="0" />
        <mxCell id="Obp8s70TfMnsPSW9Z73Y-1" value="Players" style="rounded=0;whiteSpace=wrap;html=1;fontFamily=Helvetica;fontStyle=1" vertex="1" parent="1">
          <mxGeometry x="560" y="130" width="120" height="60" as="geometry" />
        </mxCell>
        <mxCell id="Obp8s70TfMnsPSW9Z73Y-2" value="" style="endArrow=none;html=1;rounded=0;" edge="1" parent="1">
          <mxGeometry width="50" height="50" relative="1" as="geometry">
            <mxPoint x="680" y="130" as="sourcePoint" />
            <mxPoint x="730" y="80" as="targetPoint" />
          </mxGeometry>
        </mxCell>
        <mxCell id="Obp8s70TfMnsPSW9Z73Y-3" value="" style="endArrow=none;html=1;rounded=0;" edge="1" parent="1" source="Obp8s70TfMnsPSW9Z73Y-1">
          <mxGeometry width="50" height="50" relative="1" as="geometry">
            <mxPoint x="680" y="210" as="sourcePoint" />
            <mxPoint x="750.7106781186548" y="160" as="targetPoint" />
          </mxGeometry>
        </mxCell>
        <mxCell id="Obp8s70TfMnsPSW9Z73Y-4" value="" style="endArrow=none;html=1;rounded=0;entryX=0;entryY=1;entryDx=0;entryDy=0;" edge="1" parent="1" target="Obp8s70TfMnsPSW9Z73Y-1">
          <mxGeometry width="50" height="50" relative="1" as="geometry">
            <mxPoint x="510" y="240" as="sourcePoint" />
            <mxPoint x="560" y="190" as="targetPoint" />
          </mxGeometry>
        </mxCell>
        <mxCell id="Obp8s70TfMnsPSW9Z73Y-5" value="" style="endArrow=none;html=1;rounded=0;" edge="1" parent="1" source="Obp8s70TfMnsPSW9Z73Y-1">
          <mxGeometry width="50" height="50" relative="1" as="geometry">
            <mxPoint x="620" y="240" as="sourcePoint" />
            <mxPoint x="620" y="260.71067811865476" as="targetPoint" />
          </mxGeometry>
        </mxCell>
        <mxCell id="Obp8s70TfMnsPSW9Z73Y-6" value="" style="endArrow=none;html=1;rounded=0;" edge="1" parent="1" source="Obp8s70TfMnsPSW9Z73Y-1">
          <mxGeometry width="50" height="50" relative="1" as="geometry">
            <mxPoint x="489.28932188134524" y="210" as="sourcePoint" />
            <mxPoint x="350" y="160" as="targetPoint" />
          </mxGeometry>
        </mxCell>
        <mxCell id="Obp8s70TfMnsPSW9Z73Y-7" value="" style="endArrow=none;html=1;rounded=0;" edge="1" parent="1" source="Obp8s70TfMnsPSW9Z73Y-1">
          <mxGeometry width="50" height="50" relative="1" as="geometry">
            <mxPoint x="620" y="109.28932188134524" as="sourcePoint" />
            <mxPoint x="620" y="59.289321881345245" as="targetPoint" />
          </mxGeometry>
        </mxCell>
        <mxCell id="Obp8s70TfMnsPSW9Z73Y-8" value="" style="endArrow=none;html=1;rounded=0;entryX=0;entryY=0;entryDx=0;entryDy=0;" edge="1" parent="1" target="Obp8s70TfMnsPSW9Z73Y-1">
          <mxGeometry width="50" height="50" relative="1" as="geometry">
            <mxPoint x="510" y="90" as="sourcePoint" />
            <mxPoint x="560" y="90" as="targetPoint" />
          </mxGeometry>
        </mxCell>
        <mxCell id="Obp8s70TfMnsPSW9Z73Y-10" value="" style="endArrow=none;html=1;rounded=0;entryX=1;entryY=1;entryDx=0;entryDy=0;" edge="1" parent="1" source="Obp8s70TfMnsPSW9Z73Y-15" target="Obp8s70TfMnsPSW9Z73Y-1">
          <mxGeometry width="50" height="50" relative="1" as="geometry">
            <mxPoint x="720" y="230" as="sourcePoint" />
            <mxPoint x="730" y="190" as="targetPoint" />
          </mxGeometry>
        </mxCell>
        <mxCell id="Obp8s70TfMnsPSW9Z73Y-11" value="Name" style="ellipse;whiteSpace=wrap;html=1;" vertex="1" parent="1">
          <mxGeometry x="710" y="30" width="80" height="50" as="geometry" />
        </mxCell>
        <mxCell id="Obp8s70TfMnsPSW9Z73Y-12" value="Player ID" style="ellipse;whiteSpace=wrap;html=1;" vertex="1" parent="1">
          <mxGeometry x="585" y="10" width="70" height="40" as="geometry" />
        </mxCell>
        <mxCell id="Obp8s70TfMnsPSW9Z73Y-13" value="Performance Statistics" style="ellipse;whiteSpace=wrap;html=1;" vertex="1" parent="1">
          <mxGeometry x="460" y="20" width="120" height="90" as="geometry" />
        </mxCell>
        <mxCell id="Obp8s70TfMnsPSW9Z73Y-14" value="Date Of Birth" style="ellipse;whiteSpace=wrap;html=1;" vertex="1" parent="1">
          <mxGeometry x="750" y="140" width="90" height="60" as="geometry" />
        </mxCell>
        <mxCell id="Obp8s70TfMnsPSW9Z73Y-15" value="Contact Information" style="ellipse;whiteSpace=wrap;html=1;" vertex="1" parent="1">
          <mxGeometry x="700" y="210" width="90" height="70" as="geometry" />
        </mxCell>
        <mxCell id="Obp8s70TfMnsPSW9Z73Y-16" value="Medical History" style="ellipse;whiteSpace=wrap;html=1;" vertex="1" parent="1">
          <mxGeometry x="580" y="270" width="80" height="60" as="geometry" />
        </mxCell>
        <mxCell id="Obp8s70TfMnsPSW9Z73Y-17" value="Position" style="ellipse;whiteSpace=wrap;html=1;" vertex="1" parent="1">
          <mxGeometry x="450" y="230" width="80" height="50" as="geometry" />
        </mxCell>
        <mxCell id="Obp8s70TfMnsPSW9Z73Y-18" value="&lt;b&gt;Coaching Staff&lt;/b&gt;" style="rounded=0;whiteSpace=wrap;html=1;" vertex="1" parent="1">
          <mxGeometry x="230" y="130" width="120" height="60" as="geometry" />
        </mxCell>
        <mxCell id="Obp8s70TfMnsPSW9Z73Y-19" value="Name" style="ellipse;whiteSpace=wrap;html=1;" vertex="1" parent="1">
          <mxGeometry x="265" y="10" width="50" height="40" as="geometry" />
        </mxCell>
        <mxCell id="Obp8s70TfMnsPSW9Z73Y-20" value="" style="endArrow=none;html=1;rounded=0;entryX=0.5;entryY=1;entryDx=0;entryDy=0;" edge="1" parent="1" source="Obp8s70TfMnsPSW9Z73Y-18" target="Obp8s70TfMnsPSW9Z73Y-19">
          <mxGeometry width="50" height="50" relative="1" as="geometry">
            <mxPoint x="290" y="109.28932188134524" as="sourcePoint" />
            <mxPoint x="290" y="110" as="targetPoint" />
          </mxGeometry>
        </mxCell>
        <mxCell id="Obp8s70TfMnsPSW9Z73Y-21" value="Coach ID" style="ellipse;whiteSpace=wrap;html=1;" vertex="1" parent="1">
          <mxGeometry x="150" y="40" width="70" height="40" as="geometry" />
        </mxCell>
        <mxCell id="Obp8s70TfMnsPSW9Z73Y-22" value="" style="endArrow=none;html=1;rounded=0;entryX=0;entryY=0;entryDx=0;entryDy=0;exitX=1;exitY=1;exitDx=0;exitDy=0;" edge="1" parent="1" source="Obp8s70TfMnsPSW9Z73Y-21" target="Obp8s70TfMnsPSW9Z73Y-18">
          <mxGeometry width="50" height="50" relative="1" as="geometry">
            <mxPoint x="200" y="150" as="sourcePoint" />
            <mxPoint x="250" y="100" as="targetPoint" />
          </mxGeometry>
        </mxCell>
        <mxCell id="Obp8s70TfMnsPSW9Z73Y-23" value="Contact Details" style="ellipse;whiteSpace=wrap;html=1;" vertex="1" parent="1">
          <mxGeometry x="140" y="130" width="70" height="60" as="geometry" />
        </mxCell>
        <mxCell id="Obp8s70TfMnsPSW9Z73Y-24" value="" style="endArrow=none;html=1;rounded=0;entryX=0;entryY=0.5;entryDx=0;entryDy=0;" edge="1" parent="1" target="Obp8s70TfMnsPSW9Z73Y-18">
          <mxGeometry width="50" height="50" relative="1" as="geometry">
            <mxPoint x="210" y="160" as="sourcePoint" />
            <mxPoint x="280.71067811865476" y="160" as="targetPoint" />
          </mxGeometry>
        </mxCell>
        <mxCell id="Obp8s70TfMnsPSW9Z73Y-25" value="" style="endArrow=none;html=1;rounded=0;" edge="1" parent="1">
          <mxGeometry width="50" height="50" relative="1" as="geometry">
            <mxPoint x="350" y="130" as="sourcePoint" />
            <mxPoint x="370" y="110" as="targetPoint" />
          </mxGeometry>
        </mxCell>
        <mxCell id="Obp8s70TfMnsPSW9Z73Y-26" value="Coaching Certifications" style="ellipse;whiteSpace=wrap;html=1;" vertex="1" parent="1">
          <mxGeometry x="340" y="60" width="80" height="50" as="geometry" />
        </mxCell>
        <mxCell id="Obp8s70TfMnsPSW9Z73Y-27" value="Coaching History" style="ellipse;whiteSpace=wrap;html=1;" vertex="1" parent="1">
          <mxGeometry x="330" y="210" width="80" height="50" as="geometry" />
        </mxCell>
        <mxCell id="Obp8s70TfMnsPSW9Z73Y-28" value="" style="endArrow=none;html=1;rounded=0;exitX=1;exitY=1;exitDx=0;exitDy=0;entryX=0.35;entryY=-0.06;entryDx=0;entryDy=0;entryPerimeter=0;" edge="1" parent="1" source="Obp8s70TfMnsPSW9Z73Y-18" target="Obp8s70TfMnsPSW9Z73Y-27">
          <mxGeometry width="50" height="50" relative="1" as="geometry">
            <mxPoint x="340" y="240" as="sourcePoint" />
            <mxPoint x="390" y="190" as="targetPoint" />
          </mxGeometry>
        </mxCell>
        <mxCell id="Obp8s70TfMnsPSW9Z73Y-29" value="" style="endArrow=none;html=1;rounded=0;" edge="1" parent="1">
          <mxGeometry width="50" height="50" relative="1" as="geometry">
            <mxPoint x="180" y="240" as="sourcePoint" />
            <mxPoint x="230" y="190" as="targetPoint" />
          </mxGeometry>
        </mxCell>
        <mxCell id="Obp8s70TfMnsPSW9Z73Y-30" value="Teams/Age Groups" style="ellipse;whiteSpace=wrap;html=1;" vertex="1" parent="1">
          <mxGeometry x="100" y="220" width="80" height="50" as="geometry" />
        </mxCell>
        <mxCell id="Obp8s70TfMnsPSW9Z73Y-31" value="" style="endArrow=none;html=1;rounded=0;entryX=0.5;entryY=1;entryDx=0;entryDy=0;" edge="1" parent="1" target="Obp8s70TfMnsPSW9Z73Y-18">
          <mxGeometry width="50" height="50" relative="1" as="geometry">
            <mxPoint x="290" y="350" as="sourcePoint" />
            <mxPoint x="300" y="200" as="targetPoint" />
          </mxGeometry>
        </mxCell>
        <mxCell id="Obp8s70TfMnsPSW9Z73Y-32" value="&lt;b&gt;Training Sessions&lt;/b&gt;" style="rounded=0;whiteSpace=wrap;html=1;" vertex="1" parent="1">
          <mxGeometry x="230" y="350" width="120" height="60" as="geometry" />
        </mxCell>
        <mxCell id="Obp8s70TfMnsPSW9Z73Y-33" value="" style="endArrow=none;html=1;rounded=0;entryX=0;entryY=0;entryDx=0;entryDy=0;" edge="1" parent="1" target="Obp8s70TfMnsPSW9Z73Y-32">
          <mxGeometry width="50" height="50" relative="1" as="geometry">
            <mxPoint x="200" y="330" as="sourcePoint" />
            <mxPoint x="240" y="320" as="targetPoint" />
          </mxGeometry>
        </mxCell>
        <mxCell id="Obp8s70TfMnsPSW9Z73Y-34" value="" style="endArrow=none;html=1;rounded=0;" edge="1" parent="1">
          <mxGeometry width="50" height="50" relative="1" as="geometry">
            <mxPoint x="350" y="350" as="sourcePoint" />
            <mxPoint x="380" y="330" as="targetPoint" />
          </mxGeometry>
        </mxCell>
        <mxCell id="Obp8s70TfMnsPSW9Z73Y-35" value="" style="endArrow=none;html=1;rounded=0;" edge="1" parent="1">
          <mxGeometry width="50" height="50" relative="1" as="geometry">
            <mxPoint x="170" y="380" as="sourcePoint" />
            <mxPoint x="230" y="380" as="targetPoint" />
          </mxGeometry>
        </mxCell>
        <mxCell id="Obp8s70TfMnsPSW9Z73Y-36" value="" style="endArrow=none;html=1;rounded=0;" edge="1" parent="1">
          <mxGeometry width="50" height="50" relative="1" as="geometry">
            <mxPoint x="170" y="450" as="sourcePoint" />
            <mxPoint x="230" y="410" as="targetPoint" />
          </mxGeometry>
        </mxCell>
        <mxCell id="Obp8s70TfMnsPSW9Z73Y-37" value="" style="endArrow=none;html=1;rounded=0;" edge="1" parent="1">
          <mxGeometry width="50" height="50" relative="1" as="geometry">
            <mxPoint x="350" y="400" as="sourcePoint" />
            <mxPoint x="410" y="400" as="targetPoint" />
          </mxGeometry>
        </mxCell>
        <mxCell id="Obp8s70TfMnsPSW9Z73Y-38" value="SessionID" style="ellipse;whiteSpace=wrap;html=1;" vertex="1" parent="1">
          <mxGeometry x="370" y="290" width="80" height="50" as="geometry" />
        </mxCell>
        <mxCell id="Obp8s70TfMnsPSW9Z73Y-39" value="Date" style="ellipse;whiteSpace=wrap;html=1;" vertex="1" parent="1">
          <mxGeometry x="410" y="370" width="80" height="50" as="geometry" />
        </mxCell>
        <mxCell id="Obp8s70TfMnsPSW9Z73Y-40" value="Time" style="ellipse;whiteSpace=wrap;html=1;" vertex="1" parent="1">
          <mxGeometry x="90" y="420" width="80" height="50" as="geometry" />
        </mxCell>
        <mxCell id="Obp8s70TfMnsPSW9Z73Y-41" value="Location" style="ellipse;whiteSpace=wrap;html=1;" vertex="1" parent="1">
          <mxGeometry x="90" y="355" width="80" height="50" as="geometry" />
        </mxCell>
        <mxCell id="Obp8s70TfMnsPSW9Z73Y-42" value="Session Type" style="ellipse;whiteSpace=wrap;html=1;" vertex="1" parent="1">
          <mxGeometry x="130" y="290" width="80" height="50" as="geometry" />
        </mxCell>
        <mxCell id="Obp8s70TfMnsPSW9Z73Y-43" value="" style="endArrow=none;html=1;rounded=0;entryX=0.5;entryY=1;entryDx=0;entryDy=0;" edge="1" parent="1" target="Obp8s70TfMnsPSW9Z73Y-32">
          <mxGeometry width="50" height="50" relative="1" as="geometry">
            <mxPoint x="290" y="540" as="sourcePoint" />
            <mxPoint x="300" y="420" as="targetPoint" />
          </mxGeometry>
        </mxCell>
        <mxCell id="Obp8s70TfMnsPSW9Z73Y-44" value="&lt;b&gt;Matches&lt;/b&gt;" style="rounded=0;whiteSpace=wrap;html=1;" vertex="1" parent="1">
          <mxGeometry x="230" y="540" width="120" height="60" as="geometry" />
        </mxCell>
        <mxCell id="Obp8s70TfMnsPSW9Z73Y-45" value="" style="endArrow=none;html=1;rounded=0;" edge="1" parent="1">
          <mxGeometry width="50" height="50" relative="1" as="geometry">
            <mxPoint x="350" y="540" as="sourcePoint" />
            <mxPoint x="400" y="490" as="targetPoint" />
          </mxGeometry>
        </mxCell>
        <mxCell id="Obp8s70TfMnsPSW9Z73Y-46" value="" style="endArrow=none;html=1;rounded=0;exitX=1;exitY=0.5;exitDx=0;exitDy=0;" edge="1" parent="1" source="Obp8s70TfMnsPSW9Z73Y-44">
          <mxGeometry width="50" height="50" relative="1" as="geometry">
            <mxPoint x="350" y="580" as="sourcePoint" />
            <mxPoint x="410" y="570" as="targetPoint" />
          </mxGeometry>
        </mxCell>
        <mxCell id="Obp8s70TfMnsPSW9Z73Y-47" value="" style="endArrow=none;html=1;rounded=0;" edge="1" parent="1">
          <mxGeometry width="50" height="50" relative="1" as="geometry">
            <mxPoint x="400" y="650" as="sourcePoint" />
            <mxPoint x="350" y="600" as="targetPoint" />
          </mxGeometry>
        </mxCell>
        <mxCell id="Obp8s70TfMnsPSW9Z73Y-48" value="" style="endArrow=none;html=1;rounded=0;" edge="1" parent="1">
          <mxGeometry width="50" height="50" relative="1" as="geometry">
            <mxPoint x="210" y="520" as="sourcePoint" />
            <mxPoint x="230" y="540" as="targetPoint" />
          </mxGeometry>
        </mxCell>
        <mxCell id="Obp8s70TfMnsPSW9Z73Y-49" value="" style="endArrow=none;html=1;rounded=0;" edge="1" parent="1">
          <mxGeometry width="50" height="50" relative="1" as="geometry">
            <mxPoint x="180" y="650" as="sourcePoint" />
            <mxPoint x="230" y="600" as="targetPoint" />
          </mxGeometry>
        </mxCell>
        <mxCell id="Obp8s70TfMnsPSW9Z73Y-50" value="" style="endArrow=none;html=1;rounded=0;" edge="1" parent="1">
          <mxGeometry width="50" height="50" relative="1" as="geometry">
            <mxPoint x="160" y="570" as="sourcePoint" />
            <mxPoint x="230" y="570" as="targetPoint" />
          </mxGeometry>
        </mxCell>
        <mxCell id="Obp8s70TfMnsPSW9Z73Y-51" value="" style="endArrow=none;html=1;rounded=0;" edge="1" parent="1">
          <mxGeometry width="50" height="50" relative="1" as="geometry">
            <mxPoint x="310" y="540" as="sourcePoint" />
            <mxPoint x="340" y="480" as="targetPoint" />
          </mxGeometry>
        </mxCell>
        <mxCell id="Obp8s70TfMnsPSW9Z73Y-52" value="Outcome" style="ellipse;whiteSpace=wrap;html=1;" vertex="1" parent="1">
          <mxGeometry x="110" y="630" width="80" height="50" as="geometry" />
        </mxCell>
        <mxCell id="Obp8s70TfMnsPSW9Z73Y-53" value="Goals Scored" style="ellipse;whiteSpace=wrap;html=1;" vertex="1" parent="1">
          <mxGeometry x="80" y="550" width="80" height="50" as="geometry" />
        </mxCell>
        <mxCell id="Obp8s70TfMnsPSW9Z73Y-54" value="Goals Conceded" style="ellipse;whiteSpace=wrap;html=1;" vertex="1" parent="1">
          <mxGeometry x="180" y="470" width="80" height="50" as="geometry" />
        </mxCell>
        <mxCell id="Obp8s70TfMnsPSW9Z73Y-55" value="Location" style="ellipse;whiteSpace=wrap;html=1;" vertex="1" parent="1">
          <mxGeometry x="395" y="630" width="80" height="50" as="geometry" />
        </mxCell>
        <mxCell id="Obp8s70TfMnsPSW9Z73Y-56" value="Date" style="ellipse;whiteSpace=wrap;html=1;" vertex="1" parent="1">
          <mxGeometry x="410" y="540" width="80" height="50" as="geometry" />
        </mxCell>
        <mxCell id="Obp8s70TfMnsPSW9Z73Y-57" value="Opponent" style="ellipse;whiteSpace=wrap;html=1;" vertex="1" parent="1">
          <mxGeometry x="400" y="460" width="80" height="50" as="geometry" />
        </mxCell>
        <mxCell id="Obp8s70TfMnsPSW9Z73Y-58" value="Match ID" style="ellipse;whiteSpace=wrap;html=1;" vertex="1" parent="1">
          <mxGeometry x="315" y="430" width="80" height="50" as="geometry" />
        </mxCell>
        <mxCell id="Obp8s70TfMnsPSW9Z73Y-59" value="" style="endArrow=none;html=1;rounded=0;" edge="1" parent="1">
          <mxGeometry width="50" height="50" relative="1" as="geometry">
            <mxPoint x="290" y="840" as="sourcePoint" />
            <mxPoint x="290" y="600" as="targetPoint" />
          </mxGeometry>
        </mxCell>
        <mxCell id="Obp8s70TfMnsPSW9Z73Y-60" value="&lt;b&gt;Facilities&lt;/b&gt;" style="rounded=0;whiteSpace=wrap;html=1;" vertex="1" parent="1">
          <mxGeometry x="230" y="840" width="120" height="60" as="geometry" />
        </mxCell>
        <mxCell id="Obp8s70TfMnsPSW9Z73Y-61" value="Field Type" style="ellipse;whiteSpace=wrap;html=1;" vertex="1" parent="1">
          <mxGeometry x="140" y="950" width="80" height="50" as="geometry" />
        </mxCell>
        <mxCell id="Obp8s70TfMnsPSW9Z73Y-62" value="Seating Capacity" style="ellipse;whiteSpace=wrap;html=1;" vertex="1" parent="1">
          <mxGeometry x="80" y="850" width="80" height="50" as="geometry" />
        </mxCell>
        <mxCell id="Obp8s70TfMnsPSW9Z73Y-63" value="Maintenance Schedule" style="ellipse;whiteSpace=wrap;html=1;" vertex="1" parent="1">
          <mxGeometry x="100" y="780" width="80" height="50" as="geometry" />
        </mxCell>
        <mxCell id="Obp8s70TfMnsPSW9Z73Y-64" value="Location" style="ellipse;whiteSpace=wrap;html=1;" vertex="1" parent="1">
          <mxGeometry x="410" y="930" width="80" height="50" as="geometry" />
        </mxCell>
        <mxCell id="Obp8s70TfMnsPSW9Z73Y-65" value="Facility Name" style="ellipse;whiteSpace=wrap;html=1;" vertex="1" parent="1">
          <mxGeometry x="425" y="845" width="80" height="50" as="geometry" />
        </mxCell>
        <mxCell id="Obp8s70TfMnsPSW9Z73Y-66" value="FacilityID" style="ellipse;whiteSpace=wrap;html=1;" vertex="1" parent="1">
          <mxGeometry x="395" y="760" width="80" height="50" as="geometry" />
        </mxCell>
        <mxCell id="Obp8s70TfMnsPSW9Z73Y-67" value="" style="endArrow=none;html=1;rounded=0;" edge="1" parent="1">
          <mxGeometry width="50" height="50" relative="1" as="geometry">
            <mxPoint x="350" y="840" as="sourcePoint" />
            <mxPoint x="400" y="790" as="targetPoint" />
          </mxGeometry>
        </mxCell>
        <mxCell id="Obp8s70TfMnsPSW9Z73Y-68" value="" style="endArrow=none;html=1;rounded=0;" edge="1" parent="1" source="Obp8s70TfMnsPSW9Z73Y-60">
          <mxGeometry width="50" height="50" relative="1" as="geometry">
            <mxPoint x="350" y="920" as="sourcePoint" />
            <mxPoint x="420.71067811865476" y="870" as="targetPoint" />
          </mxGeometry>
        </mxCell>
        <mxCell id="Obp8s70TfMnsPSW9Z73Y-70" value="" style="endArrow=none;html=1;rounded=0;" edge="1" parent="1" source="Obp8s70TfMnsPSW9Z73Y-60">
          <mxGeometry width="50" height="50" relative="1" as="geometry">
            <mxPoint x="159.28932188134524" y="920" as="sourcePoint" />
            <mxPoint x="159.28932188134524" y="870" as="targetPoint" />
          </mxGeometry>
        </mxCell>
        <mxCell id="Obp8s70TfMnsPSW9Z73Y-71" value="" style="endArrow=none;html=1;rounded=0;" edge="1" parent="1">
          <mxGeometry width="50" height="50" relative="1" as="geometry">
            <mxPoint x="180" y="950" as="sourcePoint" />
            <mxPoint x="230" y="900" as="targetPoint" />
          </mxGeometry>
        </mxCell>
        <mxCell id="Obp8s70TfMnsPSW9Z73Y-72" value="" style="endArrow=none;html=1;rounded=0;entryX=0;entryY=0;entryDx=0;entryDy=0;" edge="1" parent="1" target="Obp8s70TfMnsPSW9Z73Y-60">
          <mxGeometry width="50" height="50" relative="1" as="geometry">
            <mxPoint x="180" y="810" as="sourcePoint" />
            <mxPoint x="230" y="800" as="targetPoint" />
          </mxGeometry>
        </mxCell>
        <mxCell id="Obp8s70TfMnsPSW9Z73Y-73" value="" style="endArrow=none;html=1;rounded=0;" edge="1" parent="1">
          <mxGeometry width="50" height="50" relative="1" as="geometry">
            <mxPoint x="354.5" y="910" as="sourcePoint" />
            <mxPoint x="410" y="950" as="targetPoint" />
          </mxGeometry>
        </mxCell>
      </root>
    </mxGraphModel>
  </diagram>
</mxfile>
